<?xml version="1.0" encoding="UTF-8" standalone="no"?>
<svg
   width="45"
   height="47"
   viewBox="0 0 45 47"
   version="1.1"
   id="svg1"
   sodipodi:docname="logo-dark.svg"
   inkscape:version="1.3.2 (091e20e, 2023-11-25, custom)"
   xmlns:inkscape="http://www.inkscape.org/namespaces/inkscape"
   xmlns:sodipodi="http://sodipodi.sourceforge.net/DTD/sodipodi-0.dtd"
   xmlns="http://www.w3.org/2000/svg"
   xmlns:svg="http://www.w3.org/2000/svg">
  <sodipodi:namedview
     id="namedview1"
     pagecolor="#ffffff"
     bordercolor="#000000"
     borderopacity="0.25"
     inkscape:showpageshadow="2"
     inkscape:pageopacity="0.0"
     inkscape:pagecheckerboard="0"
     inkscape:deskcolor="#d1d1d1"
     showgrid="false"
     inkscape:zoom="5.9801325"
     inkscape:cx="74.496678"
     inkscape:cy="23.578073"
     inkscape:window-width="1536"
     inkscape:window-height="890"
     inkscape:window-x="-6"
     inkscape:window-y="-6"
     inkscape:window-maximized="1"
     inkscape:current-layer="svg1" />
  <!-- Generator: Sketch 50.2 (55047) - http://www.bohemiancoding.com/sketch -->
  <title
     id="title1">logo-dark</title>
  <desc
     id="desc1">Created with Sketch.</desc>
  <defs
     id="defs1" />
  <path
     d="m 38.847996,15.330932 -2.920658,-5.188518 5.658408,0.0017 c 0.151169,0 0.327394,0.100552 0.410078,0.236299 0.0902,0.148315 0.549555,0.905812 1.101615,1.815814 0.660635,1.08932 1.450724,2.391477 1.902561,3.134729 z M 28.382238,46.754484 C 28.245267,47 28.067372,47 28.009744,47 H 25.69794 c -1.223553,-8.38e-4 -2.635022,-0.0017 -3.475223,-0.0017 L 31.21353,30.857105 c 0.149499,-0.268141 0.146158,-0.594937 -0.0092,-0.859726 C 31.048998,29.73259 30.766704,29.57003 30.461024,29.57003 h -8.35e-4 L 15.136971,29.590141 12.0902,24.314477 h 22.318764 c 0.0017,0 0.0033,-8.38e-4 0.0058,-8.38e-4 0.0025,0 0.0042,8.38e-4 0.0058,8.38e-4 0.01253,0 0.02422,-0.0042 0.03675,-0.005 0.05011,-0.0034 0.100223,-0.0084 0.147829,-0.02011 0.03675,-0.0084 0.07266,-0.02011 0.108574,-0.03352 0.01921,-0.0075 0.03758,-0.01508 0.05596,-0.02346 0.167038,-0.07458 0.314866,-0.196916 0.409243,-0.370369 l 3.679009,-6.801551 h 6.073496 z m -7.657015,-0.613372 c -0.195435,-0.321768 -0.449332,-0.7399 -0.72578,-1.194901 -0.929566,-1.534266 -2.120545,-3.498395 -2.255011,-3.713745 -0.0451,-0.0729 -0.06598,-0.250544 0.0284,-0.419808 0.215479,-0.387128 4.284522,-7.71658 5.275891,-9.503066 l 5.941537,-0.0075 z M 10.592706,36.039757 7.6394766,30.792583 l 2.9766144,-5.579836 2.985802,5.169246 c -0.927895,1.747103 -2.376113,4.472081 -3.009187,5.657764 z m -3.9638085,0.816991 c -1.5033407,0 -2.9983296,-8.38e-4 -3.2179844,-8.38e-4 h -8.352e-4 c -0.1469933,0 -0.3248886,-0.103066 -0.4059019,-0.235461 L 2.042873,35.035907 C 1.3580178,33.906365 0.4844098,32.465948 0,31.669068 h 6.1520044 l 2.9198216,5.188518 c -0.6372492,0 -1.5392536,-8.38e-4 -2.4429285,-8.38e-4 z M 16.617762,0.2463541 C 16.754733,0 16.931793,0 16.989421,0 L 22.801503,8.379e-4 13.78647,16.142057 c -0.0075,0.01341 -0.01169,0.02765 -0.01837,0.0419 -0.01336,0.02681 -0.02506,0.05447 -0.03591,0.08296 -0.0092,0.02765 -0.01754,0.05447 -0.02506,0.08212 -0.0067,0.02598 -0.01253,0.05195 -0.0167,0.07793 -0.005,0.03268 -0.0084,0.06452 -0.0092,0.09636 -8.35e-4,0.01425 -0.0042,0.02765 -0.0042,0.04274 0,0.01089 0.0025,0.02095 0.0033,0.03184 8.35e-4,0.03184 0.0042,0.06285 0.0092,0.09385 0.0033,0.02598 0.0075,0.05195 0.0142,0.07793 0.0067,0.02765 0.01587,0.05363 0.02506,0.08044 0.0092,0.02598 0.01837,0.05279 0.03007,0.07793 0.01169,0.02514 0.02506,0.0486 0.03925,0.0729 0.0142,0.02346 0.02756,0.04692 0.04426,0.06955 0.01587,0.02262 0.03424,0.04357 0.05345,0.06536 0.01837,0.02011 0.03675,0.04106 0.05679,0.06033 0.02004,0.01843 0.04092,0.03436 0.06264,0.05111 0.02422,0.01927 0.04844,0.03687 0.07433,0.05279 0.01002,0.0059 0.01754,0.01341 0.02756,0.01927 0.01002,0.0059 0.02088,0.0075 0.03174,0.01257 0.04426,0.02262 0.09104,0.0419 0.140312,0.05698 0.01754,0.005 0.03424,0.01173 0.05262,0.01592 0.06264,0.01508 0.126949,0.0243 0.194599,0.0243 8.35e-4,0 8.35e-4,8.38e-4 0.0017,8.38e-4 h 8.35e-4 8.36e-4 l 0.381681,-8.38e-4 c 0.0017,0 0.0033,8.38e-4 0.005,8.38e-4 h 8.35e-4 l 14.938196,-0.02011 c 0.395045,0.68711 1.133352,1.98005 1.76225,3.081102 0.482739,0.846318 0.88196,1.544322 1.195991,2.093172 H 10.594376 c -0.01002,0 -0.01921,0.0034 -0.0284,0.0042 -0.302339,0.005 -0.59382,0.165074 -0.747494,0.452487 L 6.1386414,29.938723 H 0.0693207 C 2.7185412,25.184257 16.440702,0.563095 16.617762,0.2463541 Z m 7.669543,0.6326439 0.539532,0.8882154 c 0.94794,1.5635942 2.286749,3.7707256 2.428731,4.0003209 0.0451,0.072901 0.06598,0.2497058 -0.02923,0.4198075 l -5.275891,9.5030662 -5.939031,0.0075 z m 10.117483,10.075379 2.9549,5.249688 -3.012528,5.568105 c -0.359131,-0.626779 -0.805122,-1.407738 -1.223552,-2.140935 -0.826837,-1.448796 -1.429844,-2.503761 -1.769766,-3.09367 0.64226,-1.175629 2.3402,-4.286058 3.050946,-5.583188 z"
     id="Fill-1"
     style="fill:#000000;fill-rule:evenodd;stroke:none;stroke-width:1" />
</svg>
